<svg viewBox="0 0 100 100"
    xmlns="http://www.w3.org/2000/svg">
    <rect fill="#7ac673" height="90" rx="8" stroke="#5bb74f" stroke-miterlimit="10" stroke-width="4" width="90" x="5" y="5"/>
    <path d="m24.25 75.66a5.47 5.47 0 0 1 5.75-5.73c1.55 0 3.55.41 6.46.41 3.19 0 4.78-1.55 5.46-6.65l1.5-10.14h-9.34a6 6 0 1 1 0-12h11.1l1.09-7.27c1.55-10.89 8.01-16.58 17.73-16.58 6.69 0 11.74 1.77 11.74 6.64a5.47 5.47 0 0 1 -5.74 5.73c-1.55 0-3.55-.41-6.46-.41-3.14 0-4.73 1.51-5.46 6.65l-.78 5.27h11.44a6 6 0 1 1 .05 12h-13.19l-1.78 12.11c-1.59 10.92-8.1 16.61-17.82 16.61-6.7 0-11.75-1.77-11.75-6.64z" fill="#fff"/>
</svg>
