<svg viewBox="0 0 100 100"
    xmlns="http://www.w3.org/2000/svg">
    <rect fill="#ff6682" height="90" rx="8" stroke="#ff2d55" stroke-miterlimit="10" stroke-width="4" width="90" x="5" y="5"/>
    <g fill="#fff">
        <path d="m46.28 18.29c11.84 0 20 8.66 20 21.71s-8.44 21.71-20.6 21.71h-10.81v20h-12.09v-63.42zm-11.41 33.05h8.13c6.93 0 11-4 11-11.29s-4-11.25-10.93-11.25h-8.2z"/>
        <path d="m62 57.45h8v4.77h.16c.84-3.45 2.54-5.12 5.17-5.12a5.06 5.06 0 0 1 1.92.35v7.55a5.69 5.69 0 0 0 -2.39-.51c-3.08 0-4.66 1.74-4.66 5.12v12.1h-8.2z"/>
    </g>
</svg>
