<svg viewBox="0 0 100 100"
    xmlns="http://www.w3.org/2000/svg">
    <rect fill="#c47ee7" height="90" rx="8" stroke="#af52de" stroke-miterlimit="10" stroke-width="4" width="90" x="5" y="5"/>
    <path d="m38.38 63c.74 4.53 5.62 7.16 11.82 7.16s10.37-2.81 10.37-6.68c0-3.51-2.73-5.31-10.24-6.76l-6.5-1.23c-12.66-2.35-19.21-8.49-19.21-18.21 0-12.22 10.59-20.09 25.18-20.09 16 0 25.36 7.83 25.53 19.91h-15c-.26-4.57-4.57-7.29-10.42-7.29s-9.31 2.63-9.31 6.37c0 3.34 2.9 5.18 9.8 6.5l6.5 1.23c13.56 2.6 19.71 8.09 19.71 18.09 0 12.74-10 20.83-26.72 20.83-15.82 0-26.28-7.3-26.5-19.78z" fill="#fff"/>
</svg>
